<svg width="100%" height="100%" viewBox="0 0 1440 320" xmlns="http://www.w3.org/2000/svg">
  <path fill="#16a34a" fill-opacity="0.7" d="M0,224L48,213.3C96,203,192,181,288,192C384,203,480,245,576,256C672,267,768,245,864,213.3C960,181,1056,139,1152,138.7C1248,139,1344,181,1392,202.7L1440,224L1440,320L1392,320C1344,320,1248,320,1152,320C1056,320,960,320,864,320C768,320,672,320,576,320C480,320,384,320,288,320C192,320,96,320,48,320L0,320Z"></path>
  <path fill="#22c55e" fill-opacity="0.5" d="M0,96L48,106.7C96,117,192,139,288,160C384,181,480,203,576,213.3C672,224,768,224,864,213.3C960,203,1056,181,1152,160C1248,139,1344,117,1392,106.7L1440,96L1440,320L1392,320C1344,320,1248,320,1152,320C1056,320,960,320,864,320C768,320,672,320,576,320C480,320,384,320,288,320C192,320,96,320,48,320L0,320Z"></path>
  <path fill="#4ade80" fill-opacity="0.6" d="M0,160L48,149.3C96,139,192,117,288,128C384,139,480,181,576,186.7C672,192,768,160,864,138.7C960,117,1056,107,1152,112C1248,117,1344,139,1392,149.3L1440,160L1440,320L1392,320C1344,320,1248,320,1152,320C1056,320,960,320,864,320C768,320,672,320,576,320C480,320,384,320,288,320C192,320,96,320,48,320L0,320Z"></path>
  <path fill="#86efac" fill-opacity="0.8" d="M0,288L48,272C96,256,192,224,288,213.3C384,203,480,213,576,213.3C672,213,768,203,864,192C960,181,1056,171,1152,160C1248,149,1344,139,1392,133.3L1440,128L1440,320L1392,320C1344,320,1248,320,1152,320C1056,320,960,320,864,320C768,320,672,320,576,320C480,320,384,320,288,320C192,320,96,320,48,320L0,320Z"></path>
</svg>