<svg xmlns="http://www.w3.org/2000/svg" xmlns:xlink="http://www.w3.org/1999/xlink" width="1080" zoomAndPan="magnify" viewBox="0 0 810 809.999993" height="1080" preserveAspectRatio="xMidYMid meet" version="1.0"><defs><clipPath id="83bb4d7a89"><path d="M 41 3 L 769 3 L 769 809.53125 L 41 809.53125 Z M 41 3 " clip-rule="nonzero"/></clipPath><clipPath id="d1ecfd64c4"><path d="M 283 517 L 370 517 L 370 809.53125 L 283 809.53125 Z M 283 517 " clip-rule="nonzero"/></clipPath></defs><rect x="-81" width="972" fill="#ffffff" y="-80.999999" height="971.999992" fill-opacity="1"/><rect x="-81" width="972" fill="#ffffff" y="-80.999999" height="971.999992" fill-opacity="1"/><g clip-path="url(#83bb4d7a89)"><path fill="#474646" d="M 283.792969 517.460938 C 280.691406 506.984375 286 495.851562 296.054688 491.621094 L 346.179688 470.574219 L 342.277344 461.273438 C 316.488281 399.96875 340.164062 326.917969 399.59375 297.085938 C 464.796875 264.390625 543.25 294.175781 571.058594 360.320312 L 576.652344 373.660156 L 626.777344 352.613281 C 636.828125 348.386719 648.480469 352.378906 653.835938 361.917969 L 768.132812 566.644531 L 768.132812 248.933594 C 768.132812 219.058594 752.207031 191.433594 726.320312 176.496094 L 446.804688 15.082031 C 420.917969 0.140625 389.070312 0.140625 363.183594 15.082031 L 83.574219 176.496094 C 57.6875 191.433594 41.761719 219.058594 41.761719 248.933594 L 41.761719 571.765625 C 41.761719 601.644531 57.6875 629.265625 83.574219 644.207031 L 369.714844 809.425781 Z M 283.792969 517.460938 " fill-opacity="1" fill-rule="nonzero"/></g><path fill="#b1b1b1" d="M 461.460938 422.09375 L 535.96875 390.761719 L 530.378906 377.417969 C 512.054688 333.871094 459.816406 314.703125 417.253906 337.722656 C 380.144531 357.78125 366.425781 404.476562 382.726562 443.375 L 386.953125 453.382812 Z M 461.460938 422.09375 " fill-opacity="1" fill-rule="nonzero"/><path fill="#474646" d="M 430.785156 514.59375 C 430.785156 515.4375 430.742188 516.28125 430.660156 517.121094 C 430.578125 517.960938 430.453125 518.796875 430.289062 519.625 C 430.125 520.453125 429.917969 521.273438 429.675781 522.082031 C 429.429688 522.890625 429.144531 523.683594 428.820312 524.464844 C 428.5 525.246094 428.136719 526.007812 427.738281 526.75 C 427.339844 527.496094 426.90625 528.21875 426.4375 528.921875 C 425.96875 529.625 425.464844 530.300781 424.929688 530.957031 C 424.394531 531.609375 423.828125 532.234375 423.230469 532.832031 C 422.632812 533.429688 422.007812 533.996094 421.355469 534.53125 C 420.703125 535.066406 420.023438 535.570312 419.324219 536.039062 C 418.621094 536.507812 417.898438 536.941406 417.152344 537.339844 C 416.40625 537.738281 415.644531 538.097656 414.863281 538.421875 C 414.082031 538.746094 413.289062 539.027344 412.480469 539.273438 C 411.671875 539.519531 410.855469 539.722656 410.027344 539.890625 C 409.199219 540.054688 408.363281 540.179688 407.523438 540.261719 C 406.679688 540.34375 405.839844 540.386719 404.996094 540.386719 C 404.148438 540.386719 403.308594 540.34375 402.464844 540.261719 C 401.625 540.179688 400.792969 540.054688 399.960938 539.890625 C 399.132812 539.722656 398.316406 539.519531 397.507812 539.273438 C 396.699219 539.027344 395.90625 538.746094 395.125 538.421875 C 394.34375 538.097656 393.582031 537.738281 392.835938 537.339844 C 392.089844 536.941406 391.367188 536.507812 390.664062 536.039062 C 389.964844 535.570312 389.285156 535.066406 388.632812 534.53125 C 387.980469 533.996094 387.355469 533.429688 386.757812 532.832031 C 386.160156 532.234375 385.59375 531.609375 385.058594 530.957031 C 384.523438 530.300781 384.019531 529.625 383.550781 528.921875 C 383.082031 528.21875 382.648438 527.496094 382.25 526.75 C 381.851562 526.007812 381.488281 525.246094 381.167969 524.464844 C 380.84375 523.683594 380.558594 522.890625 380.3125 522.082031 C 380.070312 521.273438 379.863281 520.453125 379.699219 519.625 C 379.535156 518.796875 379.410156 517.960938 379.328125 517.121094 C 379.246094 516.28125 379.203125 515.4375 379.203125 514.59375 C 379.203125 513.75 379.246094 512.90625 379.328125 512.066406 C 379.410156 511.226562 379.535156 510.390625 379.699219 509.5625 C 379.863281 508.734375 380.070312 507.914062 380.3125 507.105469 C 380.558594 506.300781 380.84375 505.503906 381.167969 504.722656 C 381.488281 503.945312 381.851562 503.179688 382.25 502.4375 C 382.648438 501.691406 383.082031 500.96875 383.550781 500.265625 C 384.019531 499.5625 384.523438 498.886719 385.058594 498.234375 C 385.59375 497.578125 386.160156 496.953125 386.757812 496.355469 C 387.355469 495.761719 387.980469 495.195312 388.632812 494.65625 C 389.285156 494.121094 389.964844 493.621094 390.664062 493.148438 C 391.367188 492.679688 392.089844 492.246094 392.835938 491.847656 C 393.582031 491.449219 394.34375 491.089844 395.125 490.765625 C 395.90625 490.441406 396.699219 490.160156 397.507812 489.914062 C 398.316406 489.667969 399.132812 489.464844 399.960938 489.300781 C 400.792969 489.132812 401.625 489.011719 402.464844 488.925781 C 403.308594 488.84375 404.148438 488.804688 404.996094 488.804688 C 405.839844 488.804688 406.679688 488.84375 407.523438 488.925781 C 408.363281 489.011719 409.199219 489.132812 410.027344 489.300781 C 410.855469 489.464844 411.671875 489.667969 412.480469 489.914062 C 413.289062 490.160156 414.082031 490.441406 414.863281 490.765625 C 415.644531 491.089844 416.40625 491.449219 417.152344 491.847656 C 417.898438 492.246094 418.621094 492.679688 419.324219 493.148438 C 420.023438 493.621094 420.703125 494.121094 421.355469 494.65625 C 422.007812 495.195312 422.632812 495.761719 423.230469 496.355469 C 423.828125 496.953125 424.394531 497.578125 424.929688 498.234375 C 425.464844 498.886719 425.96875 499.5625 426.4375 500.265625 C 426.90625 500.96875 427.339844 501.691406 427.738281 502.4375 C 428.136719 503.179688 428.5 503.945312 428.820312 504.722656 C 429.144531 505.503906 429.429688 506.300781 429.675781 507.105469 C 429.917969 507.914062 430.125 508.734375 430.289062 509.5625 C 430.453125 510.390625 430.578125 511.226562 430.660156 512.066406 C 430.742188 512.90625 430.785156 513.75 430.785156 514.59375 Z M 430.785156 514.59375 " fill-opacity="1" fill-rule="nonzero"/><path fill="#474646" d="M 605.023438 435.109375 C 605.023438 435.953125 604.984375 436.796875 604.902344 437.636719 C 604.816406 438.476562 604.695312 439.3125 604.53125 440.140625 C 604.363281 440.96875 604.160156 441.785156 603.914062 442.59375 C 603.667969 443.402344 603.386719 444.195312 603.0625 444.976562 C 602.738281 445.757812 602.378906 446.519531 601.980469 447.265625 C 601.582031 448.011719 601.148438 448.734375 600.679688 449.4375 C 600.210938 450.140625 599.707031 450.816406 599.171875 451.46875 C 598.636719 452.121094 598.070312 452.746094 597.472656 453.34375 C 596.875 453.941406 596.25 454.507812 595.597656 455.042969 C 594.941406 455.582031 594.265625 456.082031 593.5625 456.550781 C 592.859375 457.019531 592.136719 457.457031 591.390625 457.851562 C 590.648438 458.25 589.882812 458.613281 589.105469 458.933594 C 588.324219 459.257812 587.53125 459.542969 586.722656 459.789062 C 585.914062 460.035156 585.09375 460.238281 584.265625 460.402344 C 583.4375 460.566406 582.601562 460.691406 581.761719 460.773438 C 580.921875 460.855469 580.078125 460.898438 579.234375 460.898438 C 578.390625 460.898438 577.546875 460.855469 576.707031 460.773438 C 575.867188 460.691406 575.03125 460.566406 574.203125 460.402344 C 573.375 460.238281 572.554688 460.035156 571.746094 459.789062 C 570.941406 459.542969 570.144531 459.257812 569.363281 458.933594 C 568.585938 458.613281 567.820312 458.25 567.078125 457.851562 C 566.332031 457.457031 565.609375 457.019531 564.90625 456.550781 C 564.203125 456.082031 563.527344 455.582031 562.871094 455.042969 C 562.21875 454.507812 561.59375 453.941406 560.996094 453.34375 C 560.398438 452.746094 559.832031 452.121094 559.296875 451.46875 C 558.761719 450.816406 558.257812 450.140625 557.789062 449.4375 C 557.320312 448.734375 556.886719 448.011719 556.488281 447.265625 C 556.089844 446.519531 555.730469 445.757812 555.40625 444.976562 C 555.082031 444.195312 554.800781 443.402344 554.554688 442.59375 C 554.308594 441.785156 554.105469 440.96875 553.9375 440.140625 C 553.773438 439.3125 553.652344 438.476562 553.566406 437.636719 C 553.484375 436.796875 553.445312 435.953125 553.445312 435.109375 C 553.445312 434.261719 553.484375 433.421875 553.566406 432.578125 C 553.652344 431.738281 553.773438 430.90625 553.9375 430.078125 C 554.105469 429.246094 554.308594 428.429688 554.554688 427.621094 C 554.800781 426.8125 555.082031 426.019531 555.40625 425.238281 C 555.730469 424.457031 556.089844 423.695312 556.488281 422.949219 C 556.886719 422.207031 557.320312 421.480469 557.789062 420.78125 C 558.257812 420.078125 558.761719 419.398438 559.296875 418.746094 C 559.832031 418.09375 560.398438 417.46875 560.996094 416.871094 C 561.59375 416.273438 562.21875 415.707031 562.875 415.171875 C 563.527344 414.636719 564.203125 414.132812 564.90625 413.664062 C 565.609375 413.195312 566.332031 412.761719 567.078125 412.363281 C 567.820312 411.964844 568.585938 411.605469 569.363281 411.28125 C 570.144531 410.957031 570.941406 410.671875 571.746094 410.425781 C 572.554688 410.183594 573.375 409.976562 574.203125 409.8125 C 575.03125 409.648438 575.867188 409.523438 576.707031 409.441406 C 577.546875 409.359375 578.390625 409.316406 579.234375 409.316406 C 580.078125 409.316406 580.921875 409.359375 581.761719 409.441406 C 582.601562 409.523438 583.4375 409.648438 584.265625 409.8125 C 585.09375 409.976562 585.914062 410.183594 586.722656 410.425781 C 587.53125 410.671875 588.324219 410.957031 589.105469 411.28125 C 589.882812 411.605469 590.648438 411.964844 591.390625 412.363281 C 592.136719 412.761719 592.859375 413.195312 593.5625 413.664062 C 594.265625 414.132812 594.941406 414.636719 595.597656 415.171875 C 596.25 415.707031 596.875 416.273438 597.472656 416.871094 C 598.070312 417.46875 598.636719 418.09375 599.171875 418.746094 C 599.707031 419.398438 600.210938 420.078125 600.679688 420.777344 C 601.148438 421.480469 601.582031 422.207031 601.980469 422.949219 C 602.378906 423.695312 602.738281 424.457031 603.0625 425.238281 C 603.386719 426.019531 603.667969 426.8125 603.914062 427.621094 C 604.160156 428.429688 604.363281 429.246094 604.53125 430.078125 C 604.695312 430.90625 604.816406 431.738281 604.902344 432.578125 C 604.984375 433.421875 605.023438 434.261719 605.023438 435.109375 Z M 605.023438 435.109375 " fill-opacity="1" fill-rule="nonzero"/><g clip-path="url(#d1ecfd64c4)"><path fill="#b1b1b1" d="M 283.792969 517.460938 L 300.984375 769.730469 L 369.761719 809.378906 Z M 283.792969 517.460938 " fill-opacity="1" fill-rule="nonzero"/></g></svg>